<svg version="1" xmlns="http://www.w3.org/2000/svg" width="813.333" height="813.333" viewBox="0 0 610.000000 610.000000"><path d="M347.5 201.4c-4 1.8-7 5.3-8.6 10.1-1.8 5.3-2.5 6.2-5.7 6.8-1.5.2-8.1 1.4-14.7 2.6-6.6 1.2-13.3 2.6-15 3.1-1.6.5-6.4 1.4-10.5 2.1-4.1.6-10 1.7-13 2.4-13.6 3.3-19 4.4-26 5.5-4.1.7-9.1 1.7-11 2.2-1.9.5-6 1.3-9 1.8-3 .4-6.7 1.1-8.1 1.5-2.1.5-3.4-.1-7.3-3.9-5.8-5.7-12-6.6-18.8-2.8-9.6 5.4-10.4 18.8-1.5 25.6 4.4 3.4 13.4 3.7 17.7.6 3.5-2.5 7-8 7-10.8 0-1.2.9-2.6 1.9-3.2 1.9-1 11.7-3.3 21.1-5.1 4.3-.7 16.6-3.1 26-4.9 11.4-2.3 20.1-4.1 26.5-5.5 3.9-.9 9.3-2 12-2.5 2.8-.5 8.6-1.6 13-2.5 14.7-3.2 15-3.2 18.5.8 4 4.6 11.1 7.4 14.6 5.8 5.2-2.4 6.1-1.6 21.8 19.2 3.6 4.8 7.5 9.8 8.6 10.9 1.1 1.2 2 2.7 2 3.3 0 .6-2 3.5-4.5 6.4-7.1 8.3-11.3 18.7-12.9 31.6-.6 4.6-.2 8.1 2.2 19.2 2.6 12.1 14.5 27.2 25.8 32.7 17 8.3 27.7 9.4 42.9 4.5 12.9-4.2 22.6-11.6 30-22.9 6.6-10.1 8-15.4 8-30-.1-14.3-1.2-18.3-8-29-6.5-10.1-12.1-15-23.3-20.5-15.3-7.4-32.7-7.1-47.7 1-3.5 1.9-7.1 3.5-7.9 3.5-.8 0-2.4-1.2-3.5-2.8-4.8-6.5-12-15.8-16.7-21.6-7.3-8.9-7.6-9.5-5.8-14.6 4.8-14-7.2-26.3-20.1-20.6zm92 71.8c10.5 4.6 17 12 21 23.8 5.4 16.1-4.4 35.7-21.3 42.6-13 5.3-28 2-37.9-8.4-8.1-8.6-9.7-12.7-9.7-24.7 0-11.7 1.1-14.6 8.2-23.2 4.8-5.7 10.9-9.7 17.6-11.4 4.3-1.1 18.5-.3 22.1 1.3zM55.1 245.4c-11.4 1.1-11.5 1.1-12.2 3.9-.7 2.6-1.3 10.5-3.9 48.2-.5 7.1-1.3 17-1.9 22-.5 4.9-1.3 12.9-1.6 17.7-.7 8.6-.6 8.7 1.7 9.3 11.6 2.6 32.5 3.3 42 1.4 16.1-3.2 26-8.1 34-16.9 9.5-10.3 13.2-19.6 14.3-35.2 1.2-17.1-2.2-28.9-10.7-37.5-7.5-7.6-14.3-10.6-29.3-12.9-10.4-1.5-16.5-1.5-32.4 0zm33.2 19.8c4.6 1.4 10.7 6.8 13.2 11.7 2.2 4.4 3.1 17.7 1.6 25.5-2.2 12.1-8.5 20-19 24.1-5.7 2.2-7.9 2.6-15.6 2.3l-9-.3-.3-4.5c-.2-2.5.3-10.8 1.2-18.5.8-7.7 2-19.6 2.6-26.5.6-6.9 1.3-13.1 1.5-13.8.6-1.6 18.3-1.6 23.8 0zM158 269.2c-7.2.6-21.2 3.7-22.5 5-.2.2-1.1 7.3-2 15.8-.9 8.5-2.2 21.9-3 29.7-1.7 16.5-1.9 27.3-.5 27.3.6.1 5.2.1 10.3.1l9.2.1 1.7-16.9c.9-9.2 2.2-22.4 2.8-29.3.6-6.8 1.4-12.8 1.9-13.3 1-1 17.5-.4 20.8.7 2.5.9 2.6.7 5.8-9.7 1.7-5.2 1.7-5.9.3-7.3-2-2-14-3.1-24.8-2.2z"/><path d="M325.5 268.9c-14.4 3.9-26.6 16.4-29.7 30.5-3.9 16.9-.7 33.1 7.8 40.6 6.5 5.7 15.3 9.2 24.8 9.7 9.5.6 23.6-1.7 27.6-4.6 2.3-1.7 2.5-2.3 2.2-8.7-.2-3.8-.7-7.2-1.1-7.7-.4-.4-4-.1-8 .8-13.7 2.9-23.8 1.4-29.7-4.3-2.4-2.3-3.4-4.2-3.4-6.2v-3h24.4c15.4 0 24.7-.4 25.1-1 .4-.6.6-6.3.6-12.8.1-10.8-.2-12.3-2.6-17.5-5-10.5-13.7-15.7-27-16.3-4.4-.2-9.3 0-11 .5zm16.5 20.6c3.4 3.3 5 9.2 2.9 10.6-1.8 1.1-26.6 1.2-27.3 0-.9-1.5 2-7.4 5.1-10.3 3.4-3.2 5.4-3.8 11.6-3.4 3.7.2 5.5 1 7.7 3.1zM504.5 270.2c-2.7.5-6.8 1.3-9 1.6l-3.9.7-1.2 8.4c-.7 4.7-1.5 13-1.9 18.5-.4 5.6-1.3 14.6-2 20.1-.7 5.5-.9 10.4-.5 10.9.5.5 2.3 0 4.2-1.2 1.8-1.2 5.4-3.2 7.9-4.6 2.5-1.4 6-3.6 7.6-5 2.8-2.4 3-2.9 3.2-11.3.1-4.8.5-11.5.9-14.8l.7-6 8-.3c7.8-.3 8.1-.2 10.9 2.7 2.3 2.4 2.9 4 3 7.6.1 2.8.6 4.5 1.3 4.5.7 0 3.7-1.6 6.7-3.5 6.4-4.1 7.2-4.2 8.1-1.5.8 2.6-.6 4.3-5.7 7-2.3 1.2-5.5 3.2-7.3 4.6-3.5 2.6-3 .3-5.5 26.4-.5 5.7-.6 10.8-.1 11.3.4.4 5 .6 10.2.5l9.4-.3 1.2-8c.7-4.4 1.6-13.6 2-20.5l.8-12.5 6.1.3c11.2.6 18.4-5 18.4-14.2 0-7.1-3.1-12.3-8.8-14.7-5.2-2.3-8.9-2.1-14.7.7-3.6 1.7-3.6 1.7-6.3-.9-1.5-1.5-5.6-3.8-9-5.2-5.5-2.2-7.5-2.5-17.9-2.4-6.5.1-14 .6-16.8 1.1zM194.6 271.2c-.2.7-.9 8-1.5 16.3-.7 8.2-1.8 22-2.6 30.5s-1.6 18.4-1.7 22l-.3 6.5h21l1.2-10.5c1.2-9.7 2.2-22.6 4.2-52 .4-6.3.6-12.1.3-12.8-.3-.8-3.3-1.2-10.3-1.2-7.1 0-10.1.4-10.3 1.2zM221 271.2c0 .7.9 4.4 2 8.3 1.1 3.8 2.4 9 3 11.5.5 2.5 1.6 6.7 2.3 9.5.8 2.7 2.4 8.5 3.6 12.8 1.2 4.2 3.2 10.1 4.4 13 1.3 2.8 2.7 6.5 3.1 8.2.4 1.6 1.7 5.1 2.8 7.7l2 4.8h8.7c4.7 0 9.1-.4 9.7-.8.7-.4 2.2-2.5 3.3-4.7 1.2-2.2 2.6-4.7 3-5.5.5-.8 1.7-3.3 2.8-5.5 1.1-2.2 3.4-6.6 5.1-9.8 1.8-3.1 3.2-6.4 3.2-7.1 0-.7.7-1.9 1.5-2.6.8-.7 1.5-1.9 1.5-2.7 0-.8 1.5-4.6 3.4-8.6 1.8-4 4.8-10.8 6.5-15.2 1.8-4.4 3.7-8.8 4.2-9.7 2.3-4.4 1.5-4.8-9.5-4.8-7.1 0-10.6.4-11.3 1.2-1 1.4-2.9 6.2-5.8 14.3-4.4 12.7-8 21.4-12.8 31.3-1.7 3.5-2.9 2.1-4.5-4.9-.8-3.5-2-8.7-2.7-11.4-2.8-10.7-4.4-17.2-5.7-23.5l-1.3-6.5-11.3-.3c-8.6-.2-11.2 0-11.2 1z"/><path d="M500.9 329.3c-2 1.2-5.2 3.4-7.1 4.9-2 1.5-4.7 3.3-6.1 3.9-2.9 1.3-4.3 7.5-1.9 8.4 3 1.1 19.3.5 19.7-.8.2-.6.6-5.1.8-10 .5-9.6.4-9.8-5.4-6.4z"/></svg>